<svg xmlns="http://www.w3.org/2000/svg" viewBox="0 0 1903.14 1903.14"><defs><style>.a{fill:#fff;}</style></defs><title>TOS-Iowa-Seal-White</title><path class="a" d="M967.85,745.76A34.32,34.32,0,0,0,1002.13,780c.53,0,1.05,0,1.57,0l.67,0,.83-.06.88-.09.54-.07,1-.15h0c.72-.12,1.43-.26,2.14-.42l.24-.06a33.92,33.92,0,0,0,4.22-1.29l.09,0q1-.37,1.9-.8l.21-.09a34.25,34.25,0,0,0,3.8-2.06l.16-.1q.84-.53,1.64-1.11l.18-.13a34.53,34.53,0,0,0,3.29-2.72l.18-.17q.71-.68,1.38-1.39l.12-.13a34.51,34.51,0,0,0,2.71-3.3l.16-.23q.58-.82,1.12-1.67l.06-.09a34.21,34.21,0,0,0,2-3.8l.12-.27q.68-1.52,1.21-3.11l.11-.34c.11-.35.21-.7.32-1l.14-.5c.09-.32.17-.65.25-1l.14-.61q.1-.45.19-.91c0-.24.09-.48.13-.72s.09-.56.14-.84.07-.56.11-.85.06-.5.09-.76.06-.69.08-1,0-.4,0-.61c0-.55,0-1.11,0-1.67a34.28,34.28,0,0,0-68.56,0Zm-19.94-29a34.32,34.32,0,0,0,34.28-34.28q0-.91,0-1.8c0-.14,0-.27,0-.41,0-.46-.06-.92-.11-1.38,0-.12,0-.25,0-.37-.05-.47-.11-.94-.19-1.4l0-.27c-.08-.5-.17-1-.28-1.48l0-.17q-.17-.79-.38-1.56l0-.07q-.22-.82-.48-1.62h0a34.3,34.3,0,0,0-8-13.28l-.08-.08q-.83-.86-1.72-1.65l0,0q-.85-.76-1.75-1.46l-.19-.15q-.92-.71-1.89-1.36l-.07,0c-.6-.4-1.22-.78-1.85-1.14l-.31-.18c-.66-.37-1.33-.72-2-1.05l-.13-.06c-.63-.3-1.28-.58-1.93-.84l-.43-.17c-.7-.27-1.41-.52-2.13-.74l-.15,0c-.67-.2-1.34-.38-2-.54l-.52-.12c-.73-.16-1.47-.31-2.22-.42H953c-.71-.11-1.43-.18-2.16-.24l-.58,0c-.77-.05-1.54-.09-2.32-.09h-.19c-.52,0-1,0-1.55,0l-1,.08-.7.05c-.43,0-.86.1-1.29.16l-.39.05c-.5.08-1,.17-1.49.26l-.16,0q-.81.16-1.6.36h0a34,34,0,0,0-6.89,2.57l-.22.11a34.32,34.32,0,0,0-4.06,2.43l-.22.16a34.51,34.51,0,0,0-3.62,3l-.23.22a34.57,34.57,0,0,0-3.11,3.4l-.24.3c-.46.59-.91,1.19-1.33,1.81l0,0c-.43.63-.83,1.27-1.22,1.93l-.22.39c-.36.64-.72,1.29-1,2l0,.05c-.33.68-.63,1.37-.91,2.07l-.19.47c-.27.68-.52,1.38-.74,2.08l0,.07c-.23.72-.42,1.45-.6,2.19l-.12.53c-.16.73-.31,1.47-.43,2.21v.05c-.12.76-.2,1.53-.27,2.3q0,.29,0,.57c-.05.78-.09,1.56-.09,2.36A34.32,34.32,0,0,0,947.91,716.74Zm-88.5,29a34.28,34.28,0,1,0,34.28-34.28A34.32,34.32,0,0,0,859.41,745.76Zm-719.59,75.9A34.28,34.28,0,1,0,174.1,787,34.53,34.53,0,0,0,139.82,821.66Zm1543,0A34.28,34.28,0,1,0,1717.06,787,34.53,34.53,0,0,0,1682.79,821.66Zm145.57-240.49A954.87,954.87,0,0,0,1322,74.79C1204.64,25.16,1080,0,951.57,0S698.5,25.16,581.17,74.79A954.87,954.87,0,0,0,74.79,581.17C25.16,698.5,0,823.12,0,951.57S25.16,1204.64,74.79,1322a954.88,954.88,0,0,0,506.38,506.38c117.33,49.62,241.95,74.79,370.4,74.79s253.07-25.16,370.4-74.79A954.88,954.88,0,0,0,1828.35,1322c49.62-117.33,74.79-241.95,74.79-370.4S1878,698.5,1828.35,581.17ZM951.57,1868.1C446.19,1868.1,35,1456.95,35,951.57S446.19,35,951.57,35,1868.1,446.19,1868.1,951.57,1456.95,1868.1,951.57,1868.1ZM1409.74,493.4a646,646,0,1,0,138.85,206A645.78,645.78,0,0,0,1409.74,493.4Zm-1018.54,652c.2-3.24,1.33-6.36,2.53-9.67a44.45,44.45,0,0,0,2.69-9.65c.65-5.19,3.35-9.38,6.22-13.82,1-1.6,2.11-3.26,3.08-5,6.12-10.77,9.53-21.21,10.43-31.92.55-6.55,3.14-12.58,8.66-20.17,4.47-6.15,10.52-10.13,16.93-14.34,2-1.35,4.17-2.74,6.22-4.21,1.63-1.16,3.27-2.31,4.91-3.46l2.21-1.55a2.07,2.07,0,0,1,1.53-.54,2.58,2.58,0,0,1,1.21,1.54c2,5.16,4,11.87,1.36,18a59.47,59.47,0,0,0-3.26,11.35c-1,4.7-2,9.14-4.35,13.11-3.61,6-8.48,10.79-13.65,15.83l-1,1a106.91,106.91,0,0,1-14.12,11A121.44,121.44,0,0,0,409.65,1113a43.82,43.82,0,0,0-14.33,28.23c-1.39,15.5,0,29.75,4.08,42.34a60.05,60.05,0,0,0,15,24.82c1.9,1.85,3.81,3.79,5.66,5.66,5.1,5.18,10.37,10.53,16.32,14.92,6.3,4.65,14.86,10.12,25.18,11.18,3.28.34,9-.35,10.49-8.76a182,182,0,0,1,14.83-45.92c5.18-11,10.54-21.44,19.15-28.85,7.79-6.72,15.15-14,22.27-21.11l3.72-3.69c9.65-9.55,19.58-20.17,26.87-33.09,10.15-18,14.56-33,14.32-48.48-.13-8.61-.1-17.38-.07-25.86q0-6.55,0-13.1a16.47,16.47,0,0,0-1.09-6.7c-5.73-13.56-9-24.76-10.14-35.26a251.88,251.88,0,0,1-.09-54.21c.92-8.82,3.4-17.74,5.8-26.36,1.13-4.05,2.29-8.24,3.3-12.4,0-.2.12-.42.19-.64a5.74,5.74,0,0,0,0-4.52,4.32,4.32,0,0,0-2.68-2.09c-2.37-.73-4.15.33-5.29,3.15a6.6,6.6,0,0,1-.27.63c-2.93,4-5.58,7.59-8,11.05a57.51,57.51,0,0,1,3-27.73c1.27-3.45,2.48-7,3.66-10.36,3.37-9.76,6.86-19.85,11.84-29.09a265.86,265.86,0,0,1,14.48-23c3.6-5.3,7.33-10.78,10.72-16.38,4.6-7.59,10-12.66,17-16a23.62,23.62,0,0,0,9.62-8.41c1.32-2,3.42-3.51,6.79-4.73,11.06-4,27.17,2.61,32.53,13.36,3.39,6.81,7.42,13.7,16,16.6a17.05,17.05,0,0,0,5.53.81c4.6,0,9.21,0,13.81,0,4.22,0,8.46,0,12.68,0a17,17,0,0,1,3.79.41,11,11,0,0,1,1.29.37,9.59,9.59,0,0,1-.68.78,5.91,5.91,0,0,0-1,1.5,2.61,2.61,0,0,1-.19.36l-.28.37c-2.14,2.82-5.37,7.08-2.39,11.71,2.59,4,6.72,3.22,9.45,2.69a15.13,15.13,0,0,1,2.48-.36,8.6,8.6,0,0,0,3.33-.9l.71-.3c3.33-1.28,5.34-3.16,6-5.58s-.28-5.24-2.74-8.16a9.63,9.63,0,0,0-1.92-1.62l-.36-.25a14.54,14.54,0,0,1,2.62.79l11.19,4.27,4.51,1.72a84.69,84.69,0,0,0,34.59,5.24c2.28-.1,5.33.22,7,2.32,1.32,1.71,1.49,4.46.48,7.74-1.58,5.13-1.38,10.24-1.18,15.19.08,2.14.16,4.15.11,6.18-.21,7.82-5.63,15.83-12.61,18.64a29.27,29.27,0,0,0-9.45,5.76c-3.29,3.1-2.61,6.17-1,7.86a4.86,4.86,0,0,0,3.92,1.57,5.71,5.71,0,0,0,4.23-2.5c1.62-2.29,4.09-3.3,7-4.48a27,27,0,0,0,6.24-3.23c.9-.68,2.3.6,2.86,1.18,1.31,1.35,1.14,2.79.4,6l-.21.94c-1.69,7.65-7.18,10.51-16.08,12.86-1.15.3-2.32.54-3.55.78-3.81.76-7.76,1.54-11.37,4.5-4,3.24-8.5,8-8.39,15.75,0,1.39,0,2.78.08,4.17.11,5,.22,10.13-.14,15.11-.69,9.47,1.53,18.38,3.67,27l.42,1.67c4.38,17.73,10.06,32.91,17.37,46.42a173.46,173.46,0,0,0,19.86,29.78c14.18,16.76,22.44,37,29.08,54.73,7.69,20.49,10.4,43.36,8.29,69.94-.28,3.54-.74,7.17-1.18,10.67-1,7.81-2,15.88-1.26,24,2.11,23,12.62,37.85,32.14,45.25,5.51,2.09,11.21,4.55,15.08,9.55,1.64,2.11,1.75,3,1.68,3.39s-.63.9-1.51,1.37h0a4.41,4.41,0,0,0-2.46,4,2.55,2.55,0,0,1,0,.3c-.81,2.95.48,5.53,1.32,7.23l.08.17c.85,1.72.92,3.23-1.51,5-.45.32-1.5,1.08-4.48-1.39-.64-.54-1.28-1.09-1.91-1.64a49.41,49.41,0,0,0-4.72-3.79c-.09-.06-.19-.15-.29-.24-3-2.5-5.21-1.34-6.56.07-2.34,2.45-2.47,4.86-.42,7.13a5,5,0,0,1,.3.71c.11.28.22.57.34.84.21.46.44.92.67,1.39,1.7,3.42,1.78,4.34.52,5.43s-3.6,2.3-8.91-.22a19.42,19.42,0,0,1-4.11-3c-.66-.57-1.31-1.15-2-1.68-1.7-1.34-4.25-3-6.89-2.24s-3.68,3.38-4.3,5.28c-1,2.93-1.77,3.65-5.33,2.77a86.58,86.58,0,0,1-17-6.43c-7.82-3.79-10-11.28-12-20.69a54.52,54.52,0,0,1-.76-12.08c0-2.37,0-4.83-.1-7.29-.79-12.88-2.63-25.46-5.14-40.39-1.48-8.8-9-11.44-15.07-13.56l-1.51-.53c-8.06-2.9-14.79-7.73-21.92-12.84-1.29-.92-2.58-1.85-3.88-2.77-6.14-4.32-9.93-10.38-13.94-16.8-.93-1.49-1.86-3-2.83-4.45-3.28-5-7.51-6.75-11.6-4.78-5.54,2.67-4.09,8.89-3.4,11.88.86,3.72,2.71,6.67,4.5,9.52a45.28,45.28,0,0,1,2.65,4.61c1.28,2.71,1.41,5.47.33,7.37a5.71,5.71,0,0,1-4.68,2.7,48.31,48.31,0,0,0-11.38,3c-2.09.74-4.07,1.44-6.11,2a36.84,36.84,0,0,1-9.44,1.38c-8.45-.06-17,0-25.34,0H654.19c-3.9,0-9.38.48-11.88,4.41-1.87,2.93-1.54,7,1,12.5,1.47,3.19,3.16,6.3,4.78,9.31s3.42,6.33,4.88,9.56c5,11.09,10.75,25.93,10.28,42.36l0,1.06c-.17,5.72-.34,11.64.71,17.67,1.09,6.26,4.41,11.05,10.16,14.64,8.09,5,14,10.35,18.64,16.69,6.29,8.62,16.37,11.89,27.65,9,2.74-.71,5.49-1.39,8.24-2.07,10.05-2.49,20.45-5.06,30.37-9a10,10,0,0,1,7.58.61,16.65,16.65,0,0,1,8.68,8.89,29.56,29.56,0,0,1,1.82,6.82l0,.25a9.45,9.45,0,0,1,.11,2.3,3.23,3.23,0,0,1-1,0,5.14,5.14,0,0,0-4.58,2.52c-4.59,6-11.3,7.31-20,7.36-28.25.16-57,.14-84.76.11l-30.21,0h-115c-4.92,0-8.87-1.61-13.2-5.38-10-8.67-16.75-20-23.31-30.88-4.16-6.93-10.17-11.68-19.48-15.41-17.83-7.15-31.28-15.82-41.1-26.51-13.22-14.4-21.86-27.42-27.18-41C392,1180.13,390,1164.71,391.2,1145.42Zm427.7-180.23c.76-2.82,1.55-5.74,2.4-8.57,3-10.08,4.19-20.78,3.82-34.71-.33-12.52,6.68-22.59,12.87-31.48,3.4-4.89,6.51-10.46,6.23-18.06l0-1c-.29-7.87-.6-16,1.84-23.55,1.31-4.05,3.44-6.86,6.17-8.11,2.33-1.07,5-1,8,.26,4.67,2,5.63,6.74,6.63,11.8l.36,1.8c.85,4.16,1.73,8.47,1,11.59a2.48,2.48,0,0,0-.07.63c.29,11.89-1.94,21.22-7,29.37-3.66,5.88-5.43,12.4-7.14,18.7-.48,1.78-1,3.62-1.51,5.39-1.28,4.3.39,8.32,1.86,11.86a34.33,34.33,0,0,1,1.59,4.35c1.17,4.49,2.68,8.9,4.15,13.16,1.25,3.65,2.55,7.42,3.6,11.16a8.51,8.51,0,0,1-.35,4.82c-.17.65-.35,1.31-.48,2-1.53,8-3.14,14.8-4.93,20.88-2.49,8.43-5.69,17.18-12.26,24.09-2.28,2.39-4.38,4.95-6.41,7.42a101.2,101.2,0,0,1-8.13,9.12c-2.83,2.69-4.66,3.87-6,3.78s-2.9-1.39-5.16-4.14c-6.59-8-10.46-15.18-12.17-22.56a18.64,18.64,0,0,1,1.81-14.11h0C814.1,982.93,816.55,973.91,818.91,965.19Zm55.22,121v109.17c0,3.42-1,6-2.75,7s-4.24.67-7.13-.94c-9.72-5.42-16.11-14.28-19-26.34-2.58-10.81-.76-21.95,1.32-32.43,1.95-9.78,2.22-20.31.88-34.16-.36-3.72-1-7.37-1.69-10.91A99.33,99.33,0,0,1,844,1085c-.25-4.51-2-8.51-3.76-12.37a51.86,51.86,0,0,1-2.65-6.75c-.39-1.34-.83-2.67-1.26-4-1.08-3.21-2.1-6.25-2.19-9.45a6.53,6.53,0,0,1,2.23-5.49c4.84-4.45,10.33-9.5,15.6-14.62,6.27-6.1,14.09-14.49,18.94-25.24,1-2.17,1.72-2.75,2.64-2.91a2.79,2.79,0,0,1,.53.83,6.51,6.51,0,0,1,.12,2.2c0,.4,0,.81,0,1.2Q874.14,1047.3,874.13,1086.21Zm32.56-389.84A43.48,43.48,0,0,1,949.57,639a43.48,43.48,0,0,1,39.55,57.39l-2.69,8,8.28-1.43a43.51,43.51,0,1,1-17.06,78.79,75.66,75.66,0,0,1-13.76-15.39,2.5,2.5,0,0,0-4.52.85,78.17,78.17,0,0,0-.27,8.46q0,55.94,0,111.88v52.08c0,9,6.1,11.46,11.41,12.65a43.77,43.77,0,0,0,9.89.75c3.47,0,6.77,0,9.93.93,5.17,1.54,6.68,3.38,6.75,8.21.06,4.24,0,8.57,0,12.75v.69c0,4.84-1.6,6.43-6.5,6.54-4.72.1-9.94.95-12.82,6.45-2,3.91-2.2,8.08-.4,11.45s5.32,5.56,9.7,6c7.87.87,10,1.1,10,11.58,0,1.24,0,2.49.07,3.74a45.86,45.86,0,0,1-.34,9.27c-1.26,7.1-8.28,8.33-12.34,8.43l-1,0c-4.71.12-9.57.24-14.27-.07-5.85-.39-9.59,2.67-10,8.21-.28,3.65-2.26,5.8-6.22,6.77a8.19,8.19,0,0,1-9.23-3.21c-3.33-4.48-4.75-8.29-4.73-12.73.1-33.65.09-67.86.08-100.94v-162c0-.34,0-.68,0-1a21.89,21.89,0,0,0,0-2.71c0-.21,0-.65-.08-1.21-.25-4-.38-5.11-.7-5.83a2.5,2.5,0,0,0-4.46-.2,63.76,63.76,0,0,1-12.53,15.75c-7.7,5.74-17.35,9.39-26.64,9.39a48.09,48.09,0,0,1-18-3.45,43.49,43.49,0,0,1-1.21-79.57,42.85,42.85,0,0,1,25.61-3.35l8.28,1.43ZM775.93,1228.24c.07,1.24.11,2.47.14,3.71a46.32,46.32,0,0,0,1.11,10.5c1.84,7.17,5.08,12,10.18,15.3,2.71,1.73,5.43,3.57,8.06,5.35,6.74,4.56,13.72,9.27,21.35,12.86.51.24,1.38.76,1.52,1.57a3,3,0,0,1-1.14,2.45,40.94,40.94,0,0,1-3.41,2.93c-.81.65-1.64,1.31-2.45,2-3.49,3.06-7.73,7.4-9.56,13.86l0,.1a7.6,7.6,0,0,1-.41,1.21c-.32-.05-.82-.18-1.38-1.64-1.28-3.35-2.59-6.7-3.9-10l-1.32-3.38c-3.54-9.07-11.6-12.45-18.72-15.43l-2.48-1.05c-5.51-2.39-11-4.54-17.22-4.57h-.12c-5.37,0-9.52,2.19-13.54,4.31l-1.46.77a51.66,51.66,0,0,1-29.62,5.81c-2.81-.3-4.77-2.59-7-5.23-.77-.9-1.56-1.83-2.41-2.68a61.69,61.69,0,0,0-8.95-7.9,14.12,14.12,0,0,1-5.91-11.43c-.6-14.52-4.93-28.16-9.12-41.36-1.17-3.7-2.39-7.52-3.5-11.3a42.57,42.57,0,0,0-3.05-7.14,37.11,37.11,0,0,1-2.79-6.53c-.6-2.13-1.07-5,.12-6.53s3.64-1.66,5.59-1.62c14.71.3,31.78.18,48.26-5.2,4.12-1.34,8.21-3.06,11.83-4.58,4.84-2,9.06-1.64,13.28,1.23a77.24,77.24,0,0,0,13.3,6.77c1.45.62,2.91,1.25,4.34,1.9a7.08,7.08,0,0,1,4.59,6.9c.06,11.39,2.41,22.47,4.68,33.19q.56,2.64,1.11,5.28a24.85,24.85,0,0,1,.16,6.15c-.06,1.07-.11,2.18-.11,3.29C775.92,1228.14,775.93,1228.19,775.93,1228.24Zm715.87,11.63a2.49,2.49,0,0,0,0,1.44c-103.58,192.34-306.88,323.36-540.21,323.36-231.06,0-432.67-128.49-537.16-317.77a16.49,16.49,0,0,1,6.92,2.35,151.08,151.08,0,0,0,28.29,15.53c7.6,3.24,13.43,8.9,18.91,18.35a161.94,161.94,0,0,0,21.06,28.63c.73.79,1.44,1.58,2.15,2.38,4.5,5,9.15,10.25,16.84,12.17a24,24,0,0,0,5.85.75l111.75,0q81.35,0,162.71.06c5.67,0,9.42-2.09,12.14-6.8,1.46-2.52,2.28-3.17,2.71-3.27,1-.23,3.7,1.55,4.57,2.14,7.63,5.12,11.41,8,21.35,8,24.48,0,48.69-6.1,66.56-6.1,8.78,0,43.71,0,54.24-.05,35.14-.08,43,.27,58.7.27a281.86,281.86,0,0,1,41.12,3,120.38,120.38,0,0,0,22.48,1.81c1.1,0,2.19,0,3.27,0,4.64,0,9.1-.33,13.55-2.36,4.87-2.22,6.6-4.66,8.14-8.57l.05-.13c3.18,10.48,5.61,12,17.41,12l61.07,0c67,0,136.26-.05,204.39.22h.17c10,0,18.29-3.62,26.22-11.39,7.25-7.1,13.56-15.65,18.63-22.52a116.42,116.42,0,0,0,10.62-17.75,22.45,22.45,0,0,1,13.2-11.55c15.48-5.44,27.93-14.87,38.06-23.37.3-.25.58-.51.86-.76a7.33,7.33,0,0,1,1.7-1.3c1.63-.79,1.84-.64,2-.51l.07.05A6.71,6.71,0,0,1,1491.8,1239.87Zm-363.7-55.57c-.43-5.42,1.33-8.84,5.53-10.78,2.72-1.25,5.38-2.66,8-4,5.09-2.68,9.9-5.22,15.26-6.79a14.62,14.62,0,0,1,4.14-.59,25.71,25.71,0,0,1,9.33,2.21,83.31,83.31,0,0,0,34.92,5.88,85.78,85.78,0,0,1,11.29.47,92.24,92.24,0,0,0,11.94.49c.65,0,2.33-.1,2.68,3.07a15.1,15.1,0,0,1-2,8.86c-5.74,11-9.63,23.42-12.24,39.23-.51,3.06-.92,6.17-1.31,9.18-.64,4.83-1.29,9.83-2.36,14.62a13.78,13.78,0,0,1-4.43,7.3c-3.71,3.39-7.18,7.07-10.54,10.64-1.32,1.4-2.64,2.81-4,4.19-4.74,4.92-9.83,6.31-17.59,4.81-11-2.14-19.48-5.47-26.54-10.49-2.92-2.08-6.93-2.49-11.28-1.17-6.8,2.07-14.74,4.86-22.1,9.92-7.07,4.85-10.6,11.5-13.73,20-1.1,3-2.48,5.87-3.94,8.92l-.08.17c-2.29-8.57-8.18-14.56-18-18.31a31,31,0,0,1-5.56-2.83l-.14-.09a5.84,5.84,0,0,1-1.17-.86,1.39,1.39,0,0,1,1.28-1.23c17-3.59,30.28-13.71,39.94-22.13,6-5.25,7.31-12.47,8.45-18.85l.16-.88C1126.71,1220,1129.51,1202.28,1128.09,1184.3Zm379-19.52c-.07,1.75-.13,3.49-.18,5.23-.11,4.29-1.93,8.35-3.85,12.65-.95,2.12-1.92,4.31-2.7,6.56a117.09,117.09,0,0,1-7.1,15.46c-1.17,2.25-2.38,4.58-3.51,6.92-1.27,2.63-3.4,4.71-5.66,6.91a46,46,0,0,0-4.58,4.94c-11.78,15.4-28.78,25.15-43.8,33.08-1.58.83-3.26,1.52-5,2.25-5.16,2.12-11,4.51-14,11a111.55,111.55,0,0,1-7.53,12.94c-.81,1.26-1.62,2.52-2.42,3.8a75.43,75.43,0,0,1-9.17,11.16c-2.3,2.46-4.67,5-6.81,7.75-3.53,4.52-9.1,4.53-14.5,4.54-70.08.14-151.54.27-231.46-.08h-.19c-9.25,0-9.81,0-10.85-8.12a30,30,0,0,0-2-6.88,28.94,28.94,0,0,1-1.73-5.6c-.47-2.89.52-4.5,3.3-5.36a18.14,18.14,0,0,1,5.43-.86,17.32,17.32,0,0,1,7,1.52c9,4,18.46,6,27.65,7.94,2.38.51,4.77,1,7.15,1.56,11.32,2.58,20.58-.5,30-10l2.21-2.23c4.3-4.37,8.75-8.88,13.79-12.47,5.64-4,8.7-10,8.39-16.34-.44-9.15,1.36-17.84,3.26-27,.71-3.45,1.45-7,2-10.56,2.25-13.4,7.9-25.37,15.67-39.23,3.47-6.19,4.26-11,2.39-14.54-2.47-4.76-8.94-6-14.3-6.53-3.76-.38-7.21.55-10.54,1.44-.76.2-1.52.41-2.28.6-8.57,2.1-17.59,1.34-28.37-2.39a58,58,0,0,0-10.63-2.28,50.54,50.54,0,0,1-10.05-2.19c-2.4-.88-5.21-2-5.73-3.29s.68-4,1.61-6a42.17,42.17,0,0,1,2.21-4c1.64-2.71,3.33-5.51,4-9.14.53-2.78,2-10.15-5.6-12.73-4.69-1.6-9.18.38-12.32,5.44a100,100,0,0,1-12.84,17.11c-7.79,8.12-17.86,14.57-31.67,20.3-10.09,4.19-10.66,6.44-11.46,15.32l-.14,1.56c-1.38,14.69-3.73,29.27-5.83,41.79a43.75,43.75,0,0,0-.23,12.67c1.18,9.1-2.44,15.43-11.37,19.92-6.33,3.18-11.53,5.6-16.35,7.61-1.64.68-3.61.94-5.79-2.36-1.37-2.07-3.3-4.47-6.12-4.71s-5,1.72-6.63,3.45c-3.73,4-7,6.35-12,5.92-2.17-.19-3.2-.7-3.45-1.11s-.17-1.42.64-3.2a27,27,0,0,1,2-3.37,21.18,21.18,0,0,0,3.3-7c0-.16.07-.32.11-.46a4.35,4.35,0,0,0-1.29-4.88c-1.57-1.37-3.3-1.38-5.12,0a2.59,2.59,0,0,1-.27.19,68.12,68.12,0,0,0-9.61,6.72l-1.39,1.1a5.41,5.41,0,0,1-1.54,1,.35.35,0,0,1-.13-.05c-.58-.32-1.11-.79-1.17-2.9-.08-2.5,1.09-4.54,2.44-6.9.47-.83,1-1.68,1.41-2.58l.17-.33c.79-1.57,2.26-4.5.09-7-2.37-2.69-5.18-.92-6.1-.34-.22.14-.55.34-.62.38a6.21,6.21,0,0,0-2.44,1.23l0,0c-.11-.36,0-1,1-2.31a23.85,23.85,0,0,1,12.66-8.47l2.48-.68c4.4-1.19,9-2.43,12.63-5.14,11.65-8.59,18.3-20.54,19.23-34.56.4-6,.31-12.07.22-18-.07-4.8-.15-9.76,0-14.59.31-7.59-1-14.75-2.42-22-1.13-5.69-.24-11,.77-15.9.13-.63.34-1.3.56-2a13.4,13.4,0,0,0,.86-5.32c-.88-8.73,1.59-16.79,4.21-25.33.38-1.24.76-2.48,1.13-3.72,5.65-19,12.43-33.85,21.35-46.74,6.59-9.53,12.44-17.79,17.9-25.26,9.68-13.25,15.37-28.15,21.3-44.84,8.26-23.27,11.61-44.27,10.23-64.2-.76-10.89-10-21.13-19.89-21.92-11.48-.92-18.57-4.77-22.3-12.11-.64-1.26-2.53-5.56.14-7.92,1.62-1.44,4-1,7.11,1.26a63.78,63.78,0,0,0,13.86,8.06l.5.22a5.48,5.48,0,0,0,5.49,0,2.5,2.5,0,0,0,1-3.17c-1.38-3.12-3.85-4.76-6-6.21a19.84,19.84,0,0,1-2.73-2,72.21,72.21,0,0,0-5.77-4.79c-4.42-3.41-8.6-6.63-10.45-11.88l-.35-1c-.92-2.55-1.79-5-1.58-7.34.46-5.26-.58-10.21-1.59-15-.22-1-.44-2.09-.64-3.13-.86-4.41-.58-7.51.82-9.21,1.19-1.45,3.43-2.16,6.85-2.17,14.8,0,28.13-4.27,42.79-9.36a17,17,0,0,1,3.47-1,15.67,15.67,0,0,1,.21,3.25,7.92,7.92,0,0,0,4.54,7.63,44.1,44.1,0,0,0,7.91,3.17c.79.26,1.57.51,2.36.79a8.49,8.49,0,0,0,9-2.48c2.51-2.72,1.14-5.62.4-7.17-.14-.29-.28-.58-.39-.87a16.87,16.87,0,0,0-2.09-3.6,9.7,9.7,0,0,1-1.75-3.23c-.32-1.39-.1-2.24.12-2.44s.5-.15,1.2.06c6.92,2.12,13.86,2.06,20.58,2l3.34,0h1c13.11,0,20.54-5.41,24.81-18.05,1.86-5.49,12.34-12.73,18.7-12.92,1.28,0,2.56,0,3.91,0,1.85,0,3.76.06,5.69-.07,5.11-.35,8.59,1,11.28,4.52,3.38,4.36,8,6.72,12.55,9l.56.29c5,2.54,8.86,5.2,11.27,9.91,3.69,7.23,8.53,13.73,13.21,20,3.4,4.57,6.92,9.3,9.9,14.2a147.67,147.67,0,0,1,8.25,15.43l1.25,2.72c4.6,10,8.95,19.42,11,29.89.33,1.68.68,3.35,1,5,1.67,8,3.24,15.47,2.52,23.34a6.68,6.68,0,0,1-1.4,4l-.35.39c-.09-.13-.2-.29-.33-.49-1.88-3-4.61-4.93-7.24-6.79a28.47,28.47,0,0,1-4.91-4,3.55,3.55,0,0,0-2.57-1.22,5,5,0,0,0-3.66,1.75,2.5,2.5,0,0,0-.13,3.38c5.67,6.66,8.15,14.64,10.77,23.08.88,2.84,1.79,5.79,2.84,8.66,4.53,12.5,4.16,25.64,3.8,38.35-.17,6.15-1.72,12.08-3.35,18.36-.46,1.76-.92,3.52-1.34,5.29-1,4.19-2.26,8.42-3.46,12.51a179.86,179.86,0,0,0-5,19.74,140.63,140.63,0,0,0-1.39,36.12,148.59,148.59,0,0,0,5.83,31.4c3.27,10.6,7.3,19.34,12.33,26.73,10.64,15.63,22.47,28.17,36.17,38.34,7.64,5.67,14.39,13.19,21.89,24.36,1.49,2.22,3,4.43,4.53,6.57,6.36,9.11,12.37,17.71,15.37,28.19.82,2.88,1.77,5.74,2.69,8.51,2.62,7.91,5.1,15.38,5,23.59a9.34,9.34,0,0,0,4.39,7.68,11.85,11.85,0,0,0,10.85,1.55,99.53,99.53,0,0,0,45.05-34.35,22.89,22.89,0,0,1,2.79-3,19.81,19.81,0,0,0,4.53-5.54c9.37-18.87,13.17-34.8,11.94-50.11a62.16,62.16,0,0,0-2.08-11.87C1507.94,1143.45,1507.55,1153.83,1507.14,1164.78ZM1048.28,857.41c.66,2.82,1.07,5.69,1.5,8.73,1.09,7.71,2.22,15.69,7.79,22.56,1.18,1.46,2.23,3,3.35,4.67.87,1.29,1.77,2.63,2.75,3.92,9.28,12.3,9.85,26.75,9.47,36.51-1,19.25,5.34,35.37,13.14,53,4.48,10.1,5.74,17.09-.44,25.1a47.53,47.53,0,0,0-4.69,8c-1.78,3.58-3.46,7-6.25,9.6-2.59,2.46-4.16,1.94-6,.22l-2-1.84c-10.22-9.59-20.79-19.5-24.6-33.46-.94-3.44-2.1-6.84-3.23-10.13-2.62-7.65-5.09-14.87-5.09-22.79,0-3.7,1.32-7,2.71-10.54.56-1.4,1.13-2.85,1.62-4.34,3-9.15,5.71-19.08,4.73-29.71-.8-8.64-4.16-17-10.59-26.37-8.56-12.45-6.68-35.74.65-47.46h0c1.33-2.13,5.38-3.53,8.5-3.53a8,8,0,0,1,1.74.18c3.26.74,4,2.29,3.67,7.2A33.87,33.87,0,0,0,1048.28,857.41Zm-19.8,151.64.19.28,2.45,3.58c4.46,6.54,9.06,13.29,14.43,19.3,3.18,3.55,7.26,6.17,11.2,8.7,1.34.86,2.72,1.74,4,2.64,4.82,3.32,5.15,4.2,3.48,9.35-1,3.1-2.13,6.24-3.22,9.27-2.4,6.68-4.89,13.58-6.26,20.8a178.8,178.8,0,0,0-1.31,62.67c2.53,15.84,3.27,32.33-8.34,45.66-2.48,2.85-4.07,3.16-5.7,2.74s-3.91-.09-7.52.48c-1.48.23-3.73.59-5.09.64-.45-20.46-2.68-171.86-2.72-184.73,0-.45,0-.93,0-1.42,0-1.47-.12-4.2.51-4.37C1025.55,1004.78,1027.68,1007.88,1028.49,1009.05Zm455.28,96.61A176.29,176.29,0,0,1,1453,1080c-5.49-5.86-8.67-11.58-10-18a61.08,61.08,0,0,0-2.41-8c-1.63-4.62-3.17-9-2.56-13.78a26.22,26.22,0,0,1,1.36-6.46c.59-1.45,1.13-2.28,2.57-2.28a7.45,7.45,0,0,1,2,.35c21.38,6.2,33.84,20.9,38.08,44.92,2.08,11.74,6.64,23,14.37,35.48a36.15,36.15,0,0,1,4.8,12.52c.1.51.18,1,.26,1.54.05.35.11.71.17,1.07A48.12,48.12,0,0,0,1483.77,1105.66Zm44.31,54.65a2.5,2.5,0,0,0-2.34,1.41l-.12.24q0-.15-.09-.3a18.19,18.19,0,0,1-.46-6.77c.05-1.07.11-2.18.1-3.29-.13-12.85-4.06-25.73-12.37-40.54-7.85-14-12-26.83-13.09-40.41s-6.11-22.64-15.35-27.53c-2.16-1.14-3.79-3.32-5.52-5.63-.78-1-1.58-2.12-2.46-3.13-8.08-9.31-18.7-16-32.45-20.32-3-1-6.06-2.16-9-3.32-2.32-.92-4.73-1.86-7.15-2.71-3.58-1.25-7-.74-9.06,1.37s-2.42,5-1.27,8.17c1.8,5,1.72,10.09,1.65,15.48,0,.89,0,1.78,0,2.67a34.29,34.29,0,0,0,4.23,17.58,22.4,22.4,0,0,1,2.56,10.44c.3,9.66,5.64,16.6,11.09,22.88,7.87,9.07,16.73,18.29,28.16,24.33,1.27.67,2.56,1.22,3.81,1.75a22.71,22.71,0,0,1,6.3,3.5c5.28,4.66,6.64,11.13,8.09,18,.25,1.16.49,2.32.75,3.47,3.4,14.83.35,29.72-3.09,42.33-1.46,5.34-5.13,10.21-8.68,14.92-.6.8-1.2,1.6-1.79,2.39-5.32,7.19-11.44,14.44-20.13,18.72-2.21,1.09-4,1.4-5.09.87-1.24-.61-1.84-2.48-2.13-3.93a122.89,122.89,0,0,0-4.23-14.85c-1.21-3.64-2.46-7.41-3.38-11.15-1-4.17-3.33-7.45-5.55-10.62a47,47,0,0,1-3.42-5.37,113.75,113.75,0,0,0-27.11-34.48c-2.25-1.94-4.64-3.73-6.95-5.47s-4.4-3.31-6.47-5.07c-8.13-6.92-15.58-15.35-23.47-26.55-5.33-7.57-8.38-15.92-11.61-24.76-1.33-3.64-2.71-7.41-4.25-11.08-4.57-10.88-4.87-21.81-4.57-31.05.12-3.67-.09-7.4-.3-11-.43-7.56-.85-14.7,1.59-21.26a202.24,202.24,0,0,0,5.95-20.18c1.47-5.72,3-11.63,4.94-17.27a16.5,16.5,0,0,0,.77-5.62l0-4.18c0-11.26.1-22.9,0-34.36a42.34,42.34,0,0,1,2.73-15.77c5.8-15.3,3.3-30.46.1-43.28l-.26-1.06c-3.43-13.73-7-27.94-14-40.92a24.7,24.7,0,0,1-2.11-7.31,30.75,30.75,0,0,0-2.56-8.75c-1.44-2.81-2.83-5.72-4.19-8.54-6-12.53-12.22-25.48-24.36-34.52-6.38-4.75-10.69-9.23-14-14.54-3.15-5.08-9-7.56-14.08-9.75l-2.3-1c-9.84-4.36-19.12-6-28.35-5.11-5.46.54-11,1-16.4,1.48l-7.16.62-3,.29c-2.17.22-4.42.44-6.61.53-7.86.33-14.91,5.47-17.14,12.5-1,3.24.79,5.44,2.13,7l.09.11c1.95,2.34,2.85,4.51,2.6,6.27a5.26,5.26,0,0,1-2.54,3.51c-2.15,1.47-5.21,1.61-7.9,1.63l-4.9,0c-5.42.06-11,.12-16.49-.08-7.48-.27-16.31,0-25,4.29-12.19,6-25.61,8.57-41,7.89-9.1-.39-16.49,3.72-20.85,11.6a23.89,23.89,0,0,0-2.05,17c1.42,6.1,1.54,12.12,1.67,18.49l0,1.53a131.4,131.4,0,0,1-1.62,26c-1.93,11.14,6.15,19.39,12.39,24.63,4.51,3.79,9.78,5.72,14.88,7.59,2.27.83,4.41,1.62,6.49,2.55,6.38,2.87,9.22,7.47,9.8,15.85.55,7.85-.57,14.05-3.5,19.52-2.08,3.89-2.35,8-2.6,11.92-.21,3.24-.41,6.3-1.59,9.09-1.82,4.28-3.28,8.73-4.69,13-2.3,7-4.48,13.63-8.09,19.79-.51.87-1,1.82-1.37,2.74-1.31,2.84-2,4-3.12,4h0c-1.16,0-1.61-.83-2.42-4.27-.21-.91-.43-1.84-.74-2.73-3.58-10.5-5.41-21.64-7.17-32.41-.35-2.15-.71-4.31-1.08-6.46-.58-3.37-.92-6.92-1.25-10.34-.87-9-1.77-18.21-6.76-26.75a54.53,54.53,0,0,0-7.13-9.06,47.84,47.84,0,0,1-6.69-8.55c-2.93-5.21-5.9-11.52-5.75-18.82.08-4,.06-8,0-11.92q0-2.57,0-5.13c0-10.64-7.19-17.9-17.88-18.08-3.74-.06-7.53,0-11.19,0-2.44,0-4.89,0-7.34,0-6.95,0-7.59-.66-7.59-7.44,0-2.07.07-4.21.15-6.28a82.69,82.69,0,0,0-.35-14.55c0-.32-.07-.63-.1-.94a53.5,53.5,0,0,0-5-101.84c-1-.26-2-.48-3-.69a20.45,20.45,0,0,1-.18-2.58c-.16-23.5-.31-21,.08-44.48.13-8-1.12-23.69,5.26-44.55,4.22-13.8,12.39-24.29,24.13-31.26a81.87,81.87,0,0,1,23.95-9.83c33.56-7.23,123.29-.94,129.34-.11,29.39,4.06,51.59,19.89,57.62,25,20.92,17.88,30.23,48.44,38.56,73.54,2.37,7.16,4.17,14.55,7.14,21.45,5.44,12.67,15,16.61,26.8,13,5.63-1.74,7.61-6.52,8.09-12.13,1.4-16.23-15.4-155.83-18.05-165.68-2.12-7.86-10.79-16.5-21.69-16.32-31.32.51-192.05,6-211,6.07q-160.75.33-321.5.11c-65.28.33-138-5.08-159.44-6a42.63,42.63,0,0,0-28.9,9.33c-5.22,4.11-7.19,10.28-8.59,16.84-3.66,17.12-11.14,141.85-10.22,151.79.69,7.45,2.79,13.13,9.29,16.53,3.21,1.68,12.78,2.54,16.4-1.45,5.16-5.68,7-13.53,9.55-20.23,6.08-16.18,7.64-16.18,14.06-32.27s14.46-31.1,25.47-44.7c14.24-17.59,33.74-26.9,54.45-31.12,21.38-4.36,102.25-8.9,120.45-7.38,18.51,1.54,36.41,7,49.21,21.93,7.42,8.63,20.43,34.4,20.43,69.15q0,24.08,0,48.16c-.78.32-1.57.64-2.34,1A53.49,53.49,0,0,0,872.79,795c.42.18.86.34,1.29.5a14.56,14.56,0,0,1,.06,5.1,22,22,0,0,0,.62,8c.21,1,.41,2,.53,2.91.72,5.41.28,8.83-1.41,10.75s-4.7,2.69-9.53,2.7a82.77,82.77,0,0,0-22.88,3.1c-8.31,2.37-11.28,6.07-11.34,14.17,0,2.44,0,4.88,0,7.32,0,4,.07,8.09-.08,12.1-.36,9.14-3.53,16.82-9.42,22.83-9.9,10.09-15.06,22.58-15.36,37.15a126.27,126.27,0,0,1-2,17.28,122.47,122.47,0,0,0-2,18.71c0,4.18-1.64,7.82-3.35,11.68a51.25,51.25,0,0,0-3,7.84c-.26,1-1.14,2.71-2.79,2.87-.88.09-1.51-.49-2.62-2.48a127.37,127.37,0,0,1-14.66-40.23,97.44,97.44,0,0,0-4-14c-.82-2.43-1.67-4.94-2.39-7.41-2-6.75-2.84-12.63-.87-19.43,2.7-9.3,8.19-14.24,18.34-16.52,16.59-3.73,19.57-10.08,22.84-24.75a12.21,12.21,0,0,0-.61-6,15.54,15.54,0,0,1-.61-2.82,195.63,195.63,0,0,1,.08-33.79,39,39,0,0,1,1.3-6.16,55.24,55.24,0,0,0,1.26-5.48c.72-4.49-.7-9.32-4.12-14-4.49-6.1-11.87-11-17.95-11.84-.78-.11-1.57-.3-2.41-.49A19.39,19.39,0,0,0,780,774c-15.19,1-26.43-.72-36.44-5.69-13.27-6.59-27.55-6.88-41.05-6.21a18.16,18.16,0,0,0-7.09,1.33c-2.65,1.28-4.62.78-6.39-1.65s-1.58-5.33.35-8.93c2.92-5.43,2.07-9-3-12.77-6.3-4.67-13.55-6.29-20.56-7.86-1.53-.34-3.07-.69-4.59-1.06-4.06-1-8.23-1.7-12.25-2.38l-3.73-.64a18.77,18.77,0,0,0-7,.43c-.88.17-1.71.33-2.52.43-10.48,1.24-19.64,5.8-28.49,10.22-2,1-4,2-6,2.92-4.43,2.11-6.3,6.21-7.32,9.1-1.61,4.55-5.55,7.11-9.73,9.83-1.6,1-3.25,2.11-4.79,3.32-4.34,3.4-9.56,8.35-11.41,16.57a20.74,20.74,0,0,1-3.74,7.68,43.63,43.63,0,0,0-8.83,19.87c-.85,5.48-3.37,10.28-6,15.36a92.53,92.53,0,0,0-4.45,9.32c-8.52,21.87-8.74,44.31-7.71,65.29.21,4.25,1.81,8.28,3.35,12.18l.41,1c1.37,3.48.94,6.83.29,10.54-1.63,9.3-2.91,19.2.86,29a9.49,9.49,0,0,1,.88,3.51c-1.06,10.19,2,19.43,4.9,28.37.72,2.18,1.46,4.44,2.12,6.66a161.62,161.62,0,0,1,6.42,37.19c1.26,21.5-4,42.9-16.4,67.35-5.78,11.36-13.79,20.71-20.86,28.35a56.58,56.58,0,0,1-9.59,7.7,74.62,74.62,0,0,0-9,7c-7.83,7.41-16,15.49-22.07,25.56l-.79,1.3c-5.95,9.83-12.09,20-15.79,31.35-1,3.21-2.06,6.42-3.08,9.64-1.19,3.75-2.42,7.63-3.67,11.43-1.18,3.58-1.71,4.07-6.33,2.89a14.42,14.42,0,0,1-5.81-2.89c-9.5-8-21-19.24-26-34.94-5.52-17.57-5.82-34.2-.88-49.44a28.76,28.76,0,0,1,11.84-15.65c1.8-1.18,3.63-2.32,5.47-3.47,7.61-4.76,15.47-9.68,21.46-17,1.28-1.56,2.7-3.14,4.06-4.66,5.43-6,11-12.3,12.14-21.26a99.71,99.71,0,0,1,3.38-14.84c2.25-8,4.58-16.28,3.71-25.27a27.93,27.93,0,0,1,.81-7.75A46.82,46.82,0,0,0,480,1016c.18-3.34-.68-5.66-2.58-6.9s-4.41-1.11-7.43.42c-10.37,5.25-18.61,8.61-26.71,10.89a16.62,16.62,0,0,0-7.08,4.48c-9.86,9.46-18.77,17.57-27.24,24.8-6.72,5.73-10.77,15.1-10.58,24.45.32,15.69-6.16,28.61-12.55,39.17-5.49,9.08-7.55,18.93-9.56,28.46-.09.45-.18.92-.27,1.38a16.65,16.65,0,0,1-.83,3.3,21.05,21.05,0,0,0-1.86,9.12,610.42,610.42,0,0,1-34.9-204c0-338.07,275-613.11,613.11-613.11s613.11,275,613.11,613.11A610.29,610.29,0,0,1,1528.07,1160.31ZM1291.94,342.8a7.6,7.6,0,0,0,3.12,4.91l18.06,12.69a7.59,7.59,0,0,0,10.58-1.85l36.64-52.14,27.2,19.11a28.33,28.33,0,0,1,11.23,15.15,33.54,33.54,0,0,1,.26,19.55l-12.73,45.42a7.6,7.6,0,0,0,2.95,8.27l19.54,13.73a7.6,7.6,0,0,0,11.71-4.27l12.42-46.76c3-11.48,3.56-21.68,1.62-30.52a50.78,50.78,0,0,0,19.93-.94c11.68-2.94,21.49-10,29.17-20.88a57,57,0,0,0,10.68-30.74c.48-11.35-2.51-21.25-8.88-29.43-5.7-7.32-14.22-15-25.34-22.8l-60.4-42.45a7.6,7.6,0,0,0-10.58,1.85l-95.88,136.44A7.59,7.59,0,0,0,1291.94,342.8Zm112.74-99.49,36.87,25.91c20.27,14.25,17,24.79,11,33.22-6.88,9.79-12.39,9.77-14.24,9.77-4.07,0-11.5-1.84-23.81-10.48l-34.08-24Zm172.09,356a84.44,84.44,0,0,0,12.93,1c19,0,38-6.47,56.72-19.31,22.92-15.75,37.07-35.42,42.05-58.47,5-23.21.26-45.61-14.14-66.56s-33.68-33.54-57.18-37.24c-23.35-3.67-46.81,2.45-69.74,18.21s-37,35.41-41.94,58.54c-5,23.29-.22,45.75,14.22,66.77S1553.3,595.67,1576.77,599.3Zm-36.45-94.2c3.25-13.58,12.9-26,28.66-36.79s30.85-15.43,44.67-13.56,24.44,8.63,32.74,20.71c8.12,11.81,10.49,24.05,7.25,37.43s-12.95,25.86-28.77,36.74-30.84,15.47-44.63,13.65-24.33-8.51-32.58-20.52S1537.09,518.57,1540.32,505.1ZM527.58,385.79a7.6,7.6,0,0,0,11.3,5.4l20.2-11.65a7.6,7.6,0,0,0,3.69-7.9l-8.45-47.92,51.36-29.61,38,31a7.6,7.6,0,0,0,8.59.69l21.58-12.44a7.6,7.6,0,0,0,.87-12.58L532.55,190.28a7.6,7.6,0,0,0-8.46-.58l-20.6,11.87a7.6,7.6,0,0,0-3.71,7.76ZM578.73,271.9,548,289.63l-8.91-50.15ZM422.17,490.28a7.6,7.6,0,0,0,10.74.28L523.08,405a7.6,7.6,0,0,0,.28-10.74l-13.63-14.35a7.6,7.6,0,0,0-10.74-.28l-68.65,65.18L402,414.86l61.23-58.13a7.6,7.6,0,0,0,.28-10.74l-13.63-14.35a7.6,7.6,0,0,0-10.74-.28l-61.23,58.13-24.63-25.94L419.08,301a7.6,7.6,0,0,0,.28-10.74l-13.63-14.35a7.6,7.6,0,0,0-10.74-.28L307.63,358.6a7.6,7.6,0,0,0-.28,10.74ZM1152.5,287.13l115.5,46a7.59,7.59,0,0,0,9.87-4.25l7.33-18.39a7.6,7.6,0,0,0-4.24-9.87l-87.94-35,15.26-38.3,78.43,31.25a7.6,7.6,0,0,0,9.87-4.25l7.33-18.39a7.6,7.6,0,0,0-4.24-9.87l-78.43-31.25,13.24-33.23,84.35,33.61a7.6,7.6,0,0,0,9.87-4.25l7.33-18.39a7.6,7.6,0,0,0-4.24-9.87l-111.9-44.59a7.6,7.6,0,0,0-9.87,4.25l-61.73,154.91A7.6,7.6,0,0,0,1152.5,287.13ZM118.3,704.5l18.43,7.22a7.6,7.6,0,0,0,9.84-4.3l17.19-43.87,129.77,50.84a7.59,7.59,0,0,0,9.84-4.3l8.09-20.65a7.6,7.6,0,0,0-4.3-9.84L177.4,628.75l17.35-44.29a7.6,7.6,0,0,0-4.3-9.84L172,567.39a7.6,7.6,0,0,0-9.84,4.3L114,694.65a7.6,7.6,0,0,0,4.3,9.84Zm1457.83-60.59a7.6,7.6,0,0,0-.1,5.81l8.08,20.54a7.6,7.6,0,0,0,9.85,4.29l63.22-24.88,25.92,65.86a7.59,7.59,0,0,0,9.85,4.29l18.42-7.25a7.6,7.6,0,0,0,4.29-9.85l-25.92-65.86,33.92-13.35L1754,700.59a7.6,7.6,0,0,0,9.85,4.29l18.42-7.25a7.6,7.6,0,0,0,4.29-9.85l-41.19-104.69a7.6,7.6,0,0,0-9.85-4.29l-155.18,61.06A7.6,7.6,0,0,0,1576.13,643.91Zm-1388.3-107,139.28,91.7a7.59,7.59,0,0,0,10.52-2.17L349.78,608a7.6,7.6,0,0,0-2.17-10.52l-53.23-35,18.28-27.76A28.34,28.34,0,0,1,327.46,523a33.53,33.53,0,0,1,19.53-.86l45.78,11.35a7.6,7.6,0,0,0,8.17-3.2l13.14-20a7.6,7.6,0,0,0-4.62-11.58l-47.12-11c-11.57-2.68-21.78-2.9-30.55-.69a50.77,50.77,0,0,0-1.55-19.89C327,455.58,319.63,446,308.49,438.65a57,57,0,0,0-31-9.74c-11.35-.13-21.16,3.16-29.15,9.77-7.14,5.92-14.55,14.67-22,26l-40.6,61.66a7.6,7.6,0,0,0,2.17,10.52Zm66.92-54.52c13.63-20.7,24.27-17.69,32.87-12,10,6.58,10.15,12.12,10.2,13.93.11,4.07-1.49,11.55-9.75,24.11l-22.91,34.79L230,520ZM989.26,258l21.83,3.24a7.6,7.6,0,0,0,8.63-6.4l9.35-63,32.88,4.88a28.34,28.34,0,0,1,16.83,8.5,33.53,33.53,0,0,1,9,17.35l9,46.3a7.6,7.6,0,0,0,6.34,6.06l23.63,3.5a7.6,7.6,0,0,0,8.55-9.07L1125.42,222c-2.45-11.62-6.54-21-12.25-28a50.76,50.76,0,0,0,17.38-9.78c9.12-7.87,14.74-18.55,16.69-31.75A57,57,0,0,0,1143,120.2c-4.67-10.36-11.78-17.86-21.15-22.32-8.38-4-19.44-7-32.88-9L1016,78a7.6,7.6,0,0,0-8.63,6.4l-24.47,165A7.6,7.6,0,0,0,989.26,258Zm51.12-142.49,44.58,6.61c24.51,3.64,26.27,14.55,24.76,24.74-1.76,11.84-6.71,14.31-8.34,15.12-3.64,1.82-11.1,3.52-26,1.31l-41.21-6.11Zm-222.82,74.8c1.1,13.94,3.43,26.32,6.94,36.79,3.86,11.53,11.67,21.25,23.22,28.91,9.53,6.32,22.4,9.5,38.35,9.5q5.09,0,10.59-.43c15.68-1.23,28.84-4.92,39.11-11A54.3,54.3,0,0,0,959,227.39c4.55-11.12,5.94-27,4.25-48.49l-7.55-96.16a7.6,7.6,0,0,0-8.17-7L925.4,77.49a7.6,7.6,0,0,0-7,8.17L926,181.49c1.91,24.38-2,34.25-5.66,38.25-5.42,5.95-14.29,9.44-26.37,10.39S872.52,229,866.24,224c-4.22-3.37-9.64-12.52-11.56-36.89l-7.53-95.82a7.59,7.59,0,0,0-8.17-7L817,86a7.6,7.6,0,0,0-7,8.17ZM669.78,213.56c11.35,5,27,6.61,48,4.78,18.63-1.62,32.1-1.65,40-.09,5.92,1.16,9.39,4.4,11.25,10.49,1.8,5.9.72,11-3.41,16.1-4.74,5.84-12.36,10.39-22.65,13.54-11,3.36-21.17,3.75-30.24,1.17-8.26-2.35-14.13-8-18-17.41a7.6,7.6,0,0,0-9.25-4.39L665.18,244a7.6,7.6,0,0,0-5,9.75c6.08,17.57,17.31,30.31,33.38,37.86a63.43,63.43,0,0,0,27.26,5.63c10.07,0,21.17-1.84,33.23-5.53,19.21-5.87,33.57-15.87,42.67-29.74,9.41-14.32,11.71-29.65,6.85-45.55-3.86-12.64-10.68-21.88-20.26-27.46a64.33,64.33,0,0,0-29.18-8.67c-9.56-.51-22.22-.15-37.62,1.09-17.63,1.42-25.68.49-29.33-.55s-5.89-3.36-7.16-7.54c-1.49-4.88-.55-9.21,3-13.62,4.11-5.15,11.36-9.34,21.56-12.45,26.53-8.11,34.9,2.46,39.24,12.57A7.6,7.6,0,0,0,753,164l20.56-6.28a7.6,7.6,0,0,0,4.94-9.79c-6.07-17.2-17.13-28.84-32.87-34.61-15.1-5.53-32.65-5.31-52.17.65-18.73,5.72-32.67,15.13-41.44,28-9.14,13.37-11.42,27.84-6.79,43C649.44,198.56,657.68,208.18,669.78,213.56Zm377.36,1571.61a7.44,7.44,0,0,0-5.32-2l-92.62,2.94-1.28-40.34,82.6-2.62a7.44,7.44,0,0,0,7.2-7.67l-.61-19.37a7.44,7.44,0,0,0-7.67-7.2l-82.6,2.62-1.11-35,88.84-2.82a7.44,7.44,0,0,0,7.2-7.67l-.61-19.37a7.44,7.44,0,0,0-7.67-7.2l-117.86,3.74a7.44,7.44,0,0,0-7.2,7.67L913.59,1814a7.44,7.44,0,0,0,7.43,7.2h.24l121.64-3.86a7.44,7.44,0,0,0,7.2-7.67l-.61-19.37A7.43,7.43,0,0,0,1047.14,1785.16ZM1262.94,1596c-20.92-10.13-43.33-10.77-66.58-1.91s-39.67,24.3-48.62,45.8-8.47,45.09,1.23,70.54,25.15,43.35,46,53.41a79.14,79.14,0,0,0,34.74,8.1,89.72,89.72,0,0,0,32.06-6.23c23.25-8.86,39.54-24.25,48.41-45.74,8.81-21.33,8.35-45-1.34-70.49S1283.71,1606.09,1262.94,1596Zm13.79,112.37c-4.87,12.6-13.71,21.19-27,26.26h0c-13.18,5-25.46,4.46-37.52-1.72s-21.72-18.26-28.38-35.75-7.56-32.9-2.59-45.62,13.85-21.26,27.25-26.37a47.9,47.9,0,0,1,17.14-3.36,43.47,43.47,0,0,1,20.14,5.1c12.09,6.22,21.62,18.28,28.31,35.85S1281.64,1695.7,1276.73,1708.4Zm201-298.41a7.44,7.44,0,0,0-10.51.44l-14.7,16a7.44,7.44,0,0,0,.44,10.51l120.11,110.54a7.44,7.44,0,0,0,10.51-.44l14.7-16a7.44,7.44,0,0,0-.44-10.51Zm-60.68,154.4a7.44,7.44,0,0,0-10.29-2.15l-58,38-19.55-29.85,67.84-44.42a7.44,7.44,0,0,0,2.15-10.29l-10.61-16.21a7.44,7.44,0,0,0-10.29-2.15l-92.13,60.33a7.44,7.44,0,0,0-2.15,10.29l89.43,136.56a7.44,7.44,0,0,0,10.29,2.15l18.07-11.83a7.44,7.44,0,0,0,2.15-10.29l-36.43-55.63,58-38a7.44,7.44,0,0,0,2.15-10.29ZM233.46,1067.66a7.44,7.44,0,0,0,7.42,6.92l.52,0,19.33-1.35a7.44,7.44,0,0,0,6.9-7.94l-9-129a7.44,7.44,0,0,0-7.94-6.9l-19.33,1.35a7.44,7.44,0,0,0-6.9,7.94l3.21,46-136.1,9.5a7.44,7.44,0,0,0-6.9,7.94l1.51,21.66a7.44,7.44,0,0,0,7.94,6.9l136.1-9.5Zm1586.6-140.51a7.44,7.44,0,0,0-6.9-1.17l-167.25,55.75a7.44,7.44,0,0,0-5.07,6.57l-1.53,23.22a7.44,7.44,0,0,0,4.3,7.24L1802.4,1092a7.44,7.44,0,0,0,10.54-6.27l1.5-22.78a7.44,7.44,0,0,0-4.43-7.3l-43.6-19.16,3.8-57.91,45.9-14.13a7.44,7.44,0,0,0,5.23-6.62l1.6-24.33A7.44,7.44,0,0,0,1820.06,927.14Zm-84.87,96-45.67-20,47.95-14.68Zm60.34,121.23-142.34-91.81a7.44,7.44,0,0,0-11.13,4l-6.8,21.79a7.44,7.44,0,0,0,3.25,8.58l92.78,56-109.37-3.62a7.42,7.42,0,0,0-7.34,5.22l-7.73,24.76a7.43,7.43,0,0,0,3.07,8.47l92,59.27-108.18-6.72a7.44,7.44,0,0,0-7.56,5.21l-6.77,21.68a7.44,7.44,0,0,0,6.85,9.65l169.26,5.62h.25a7.44,7.44,0,0,0,7.1-5.22l6.17-19.77a7.43,7.43,0,0,0-3.07-8.47l-101.11-65.24,120.23,4a7.39,7.39,0,0,0,7.34-5.22l6.17-19.77A7.44,7.44,0,0,0,1795.53,1144.38Zm-144.89,162.41c-22.77-14.93-45.83-20.46-68.56-16.44-22.89,4.05-41.42,16.66-55.06,37.47h0c-13.68,20.87-17.91,42.94-12.55,65.6,5.32,22.51,19.57,41.5,42.34,56.44,17.87,11.72,36,17.61,54,17.61a83,83,0,0,0,14.61-1.3c23-4.1,41.54-16.76,55.22-37.62s17.83-42.83,12.42-65.44C1687.67,1340.67,1673.41,1321.72,1650.64,1306.79Zm2,103.65c-7.74,11.8-18,18.54-31.41,20.6s-28.3-2.07-43.95-12.33-25.41-22.23-28.84-35.45-1.24-25.34,6.63-37.33c7.69-11.73,17.91-18.41,31.22-20.44a44.69,44.69,0,0,1,6.73-.5c11.59,0,24.08,4.34,37.22,13,15.71,10.31,25.44,22.21,28.9,35.38S1660.42,1398.52,1652.6,1410.44ZM494.69,1548.73a7.44,7.44,0,0,0,5.21-2.64c11.48-13.67,15.8-28.78,12.84-44.92-2.85-15.48-11.76-30.17-26.49-43.66-14.14-12.95-29-20-44.18-21-15.83-1.06-29.16,4.21-39.64,15.66-9.41,10.27-13.42,22-11.94,34.88,1.39,12.08,7.87,26.08,19.81,42.81,10.63,14.9,17.35,26.24,20,33.72,2,5.57,1,10.11-3.25,14.71s-8.93,6.08-15.27,5.13c-7.27-1.09-14.9-5.25-22.67-12.37-8.3-7.6-13.69-16-16-24.92-2.13-8.13-.25-15.91,5.75-23.79a7.44,7.44,0,0,0-.9-10l-15.36-14.06a7.44,7.44,0,0,0-10.69.67c-11.79,13.86-16.95,29.67-15.32,47,1.6,17.13,11.69,34.31,30,51.06,14.5,13.28,30.08,20.41,46.29,21.2q1.57.08,3.11.08c15.39,0,28.4-5.69,38.7-16.95,8.74-9.55,13.14-19.89,13.08-30.73a63,63,0,0,0-7.2-28.92c-4.32-8.32-10.92-18.81-19.62-31.18-10-14.16-13.18-21.41-14.12-25s-.09-6.63,2.8-9.79c3.38-3.69,7.5-5,13-4.27,6.38.9,13.52,4.94,21.22,12,20,18.34,15.28,30.65,8.91,39.33a7.44,7.44,0,0,0,1,9.88l15.52,14.21A7.42,7.42,0,0,0,494.69,1548.73ZM276.22,1300.5l30.47-17.24,43.78,77.35a7.44,7.44,0,0,0,10.13,2.81l16.86-9.54a7.44,7.44,0,0,0,2.81-10.13l-58.08-102.62a7.44,7.44,0,0,0-10.13-2.81L170,1318.7a7.44,7.44,0,0,0-2.81,10.13l59.94,105.92a7.43,7.43,0,0,0,10.13,2.81l16.86-9.54a7.44,7.44,0,0,0,2.81-10.13l-45.64-80.65,35.12-19.88,40.71,71.93a7.44,7.44,0,0,0,10.13,2.81l16.86-9.54a7.44,7.44,0,0,0,2.81-10.13Zm32.42-82.27a7.44,7.44,0,0,0,.56-5.66l-6.28-20.79a7.44,7.44,0,0,0-9.27-5l-57,17.24-20.25-67,57-17.24a7.44,7.44,0,0,0,5-9.27l-6.25-20.68a7.44,7.44,0,0,0-9.27-5l-156.25,47.23a7.44,7.44,0,0,0-5,9.27l6.25,20.68a7.44,7.44,0,0,0,9.27,5L183.57,1147l20.25,67L137.39,1234a7.44,7.44,0,0,0-5,9.27l6.28,20.78a7.44,7.44,0,0,0,9.27,5l156.26-47.23A7.44,7.44,0,0,0,308.64,1218.23ZM718,1601.34l-21.78-8.19a7.44,7.44,0,0,0-8.18,2L572,1725.91a7.44,7.44,0,0,0,2.94,11.9l21.37,8a7.43,7.43,0,0,0,8.26-2.12l31-36.18L689.83,1728l.22,48a7.44,7.44,0,0,0,4.82,6.93l22.83,8.58a7.44,7.44,0,0,0,10.05-7.17l-4.88-176.23A7.44,7.44,0,0,0,718,1601.34Zm-60.7,80.2,32.37-37.91.15,50.14Zm232.53-39.44L762.7,1618.83a7.44,7.44,0,0,0-8.65,6l-3.49,19.06a7.44,7.44,0,0,0,6,8.65l45.37,8.3L777.37,1795a7.44,7.44,0,0,0,6,8.65l21.36,3.91a7.43,7.43,0,0,0,8.65-6l24.55-134.2,45.81,8.38a7.44,7.44,0,0,0,8.65-6l3.49-19.06A7.44,7.44,0,0,0,889.87,1642.09Zm-256.42-36.26a7.44,7.44,0,0,0,10.21-2.53l10-16.6a7.44,7.44,0,0,0-2.53-10.21L540.37,1509.8a7.44,7.44,0,0,0-10.21,2.53l-10,16.6a7.44,7.44,0,0,0,2.53,10.21l39.51,23.79-70.38,116.87a7.44,7.44,0,0,0,2.53,10.21l18.6,11.2a7.43,7.43,0,0,0,10.21-2.53l70.38-116.87Z"/></svg>